<svg xmlns="http://www.w3.org/2000/svg" width="16" height="16" viewBox="0 0 16 16">
<path fill="#ffffff" d="M0 8a4 4 0 0 1 7.465-2H14a.5.5 0 0 1 .354.146l1.5 1.5a.5.5 0 0 1 0 .708l-1.5 1.5a.5.5 0 0 1-.708 0L13 9.207l-.646.647a.5.5 0 0 1-.708 0L11 9.207l-.646.647a.5.5 0 0 1-.708 0L9 9.207l-.646.647A.5.5 0 0 1 8 10h-.535A4 4 0 0 1 0 8m4-3a3 3 0 1 0 2.712 4.285A.5.5 0 0 1 7.163 9h.63l.853-.854a.5.5 0 0 1 .708 0l.646.647l.646-.647a.5.5 0 0 1 .708 0l.646.647l.646-.647a.5.5 0 0 1 .708 0l.646.647l.793-.793l-1-1h-6.63a.5.5 0 0 1-.451-.285A3 3 0 0 0 4 5"/><path d="M4 8a1 1 0 1 1-2 0a1 1 0 0 1 2 0"/>
<defs>
<linearGradient id="paint0_linear_39_11172" x1="15.3872" y1="2.04999" x2="15.3872" y2="17.134" gradientUnits="userSpaceOnUse">
<stop stop-color="white"/>
<stop offset="0.744792" stop-color="white" stop-opacity="0.364583"/>
<stop offset="1" stop-color="white" stop-opacity="0"/>
</linearGradient>
<linearGradient id="paint1_linear_39_11172" x1="16.8784" y1="18.5875" x2="16.8784" y2="32.2328" gradientUnits="userSpaceOnUse">
<stop stop-color="white"/>
<stop offset="0.744792" stop-color="white" stop-opacity="0.364583"/>
<stop offset="1" stop-color="white" stop-opacity="0"/>
</linearGradient>
</defs>
</svg>
