<svg xmlns="http://www.w3.org/2000/svg" width="24" height="24" viewBox="0 0 24 24"><circle cx="5.5" cy="7.5" r="1.5" fill="#ffffff"/><path fill="#ffffff" fill-rule="evenodd" d="M8 6.5a.5.5 0 0 1 .5-.5h11a.5.5 0 0 1 0 1h-11a.5.5 0 0 1-.5-.5m0 2a.5.5 0 0 1 .5-.5h6a.5.5 0 0 1 0 1h-6a.5.5 0 0 1-.5-.5" clip-rule="evenodd"/><circle cx="5.5" cy="12" r="1.5" fill="#ffffff"/><path fill="#ffffff" fill-rule="evenodd" d="M8 11a.5.5 0 0 1 .5-.5h8a.5.5 0 0 1 0 1h-8A.5.5 0 0 1 8 11m0 2a.5.5 0 0 1 .5-.5h7a.5.5 0 0 1 0 1h-7A.5.5 0 0 1 8 13" clip-rule="evenodd"/><circle cx="5.5" cy="16.5" r="1.5" fill="#ffffff"/><path fill="#ffffff" fill-rule="evenodd" d="M8 15.5a.5.5 0 0 1 .5-.5H18a.5.5 0 0 1 0 1H8.5a.5.5 0 0 1-.5-.5m0 2a.5.5 0 0 1 .5-.5h4a.5.5 0 0 1 0 1h-4a.5.5 0 0 1-.5-.5" clip-rule="evenodd"/>
<defs>
<linearGradient id="paint0_linear_39_11181" x1="12.6663" y1="11" x2="12.6663" y2="13.4231" gradientUnits="userSpaceOnUse">
<stop stop-color="white"/>
<stop offset="0.744792" stop-color="white" stop-opacity="0.364583"/>
<stop offset="1" stop-color="white" stop-opacity="0"/>
</linearGradient>
<linearGradient id="paint1_linear_39_11181" x1="14.6663" y1="16.3333" x2="14.6663" y2="18.7565" gradientUnits="userSpaceOnUse">
<stop stop-color="white"/>
<stop offset="0.744792" stop-color="white" stop-opacity="0.364583"/>
<stop offset="1" stop-color="white" stop-opacity="0"/>
</linearGradient>
<linearGradient id="paint2_linear_39_11181" x1="16.0003" y1="1.66666" x2="16.0003" y2="36.3983" gradientUnits="userSpaceOnUse">
<stop stop-color="white"/>
<stop offset="0.744792" stop-color="white" stop-opacity="0.364583"/>
<stop offset="1" stop-color="white" stop-opacity="0"/>
</linearGradient>
</defs>
</svg>
