<svg xmlns="http://www.w3.org/2000/svg" width="24" height="24" viewBox="0 0 24 24">
<g fill="none" stroke="#ffffff" stroke-linecap="round" stroke-linejoin="round" stroke-width="1.5">
<path d="M4 6v6s0 3 7 3q.888 0 1.631-.06M18 6v6"/>
<path d="M11 3c7 0 7 3 7 3s0 3-7 3s-7-3-7-3s0-3 7-3m0 18c-7 0-7-3-7-3v-6m18.666 5.667C22.048 16.097 20.634 15 18.99 15c-1.758 0-3.252 1.255-3.793 3"/>
<path d="M20.995 17.667h1.671v0c.185 0 .334-.15.334-.334v-1.888m-7.666 4.888C15.952 21.903 17.366 23 19.01 23c1.758 0 3.252-1.255 3.793-3"/>
<path d="M17.005 20.333h-1.671v0a.334.334 0 0 0-.334.334v1.888"/></g>
<defs>
<linearGradient id="paint0_linear_272_12172" x1="1.99961" y1="9.95001" x2="1.99961" y2="24.6706" gradientUnits="userSpaceOnUse">
<stop stop-color="white"/>
<stop offset="0.744792" stop-color="white" stop-opacity="0.364583"/>
<stop offset="1" stop-color="white" stop-opacity="0"/>
</linearGradient>
<linearGradient id="paint1_linear_272_12172" x1="7.59922" y1="7.30005" x2="7.59922" y2="28.442" gradientUnits="userSpaceOnUse">
<stop stop-color="white"/>
<stop offset="0.744792" stop-color="white" stop-opacity="0.364583"/>
<stop offset="1" stop-color="white" stop-opacity="0"/>
</linearGradient>
<linearGradient id="paint2_linear_272_12172" x1="13.1988" y1="2.15002" x2="13.1988" y2="35.7711" gradientUnits="userSpaceOnUse">
<stop stop-color="white"/>
<stop offset="0.744792" stop-color="white" stop-opacity="0.364583"/>
<stop offset="1" stop-color="white" stop-opacity="0"/>
</linearGradient>
<linearGradient id="paint3_linear_272_12172" x1="18.8004" y1="10.3" x2="18.8004" y2="24.2331" gradientUnits="userSpaceOnUse">
<stop stop-color="white"/>
<stop offset="0.744792" stop-color="white" stop-opacity="0.364583"/>
<stop offset="1" stop-color="white" stop-opacity="0"/>
</linearGradient>
<linearGradient id="paint4_linear_272_12172" x1="24.4" y1="6.20001" x2="24.4" y2="29.9468" gradientUnits="userSpaceOnUse">
<stop stop-color="white"/>
<stop offset="0.744792" stop-color="white" stop-opacity="0.364583"/>
<stop offset="1" stop-color="white" stop-opacity="0"/>
</linearGradient>
<linearGradient id="paint5_linear_272_12172" x1="29.9996" y1="12.2" x2="29.9996" y2="21.4685" gradientUnits="userSpaceOnUse">
<stop stop-color="white"/>
<stop offset="0.744792" stop-color="white" stop-opacity="0.364583"/>
<stop offset="1" stop-color="white" stop-opacity="0"/>
</linearGradient>
</defs>
</svg>

